PathFileType	4	(X/Y/Z)	C:/Users/opensim2020/Desktop/walking_exp_matlab/subject03_walking10_straight_04.trc	
DataRate	CameraRate	NumFrames	NumMarkers	Units	OrigDataRate	OrigDataStartFrame	OrigNumFrames	
100.00	100.00	8	45	mm	100.00	4022	317	
Frame#	Time	LFHD			RFHD			LBHD			RBHD			C7			T10			CLAV			STRN			RBAK			LSHO			LUPA			LELB			LFRM			LWRA			LWRB			LFIN			RSHO			RUPA			RELB			RFRM			RWRA			RWRB			RFIN			LASI			RASI			LPSI			RPSI			LTHI			LKNE			LTIB			LANK			LHEE			LTOE			RTHI			RKNE			RTIB			RANK			RHEE			RTOE			*39			*40			*41			*42			*43			*44			
		X1	Y1	Z1	X2	Y2	Z2	X3	Y3	Z3	X4	Y4	Z4	X5	Y5	Z5	X6	Y6	Z6	X7	Y7	Z7	X8	Y8	Z8	X9	Y9	Z9	X10	Y10	Z10	X11	Y11	Z11	X12	Y12	Z12	X13	Y13	Z13	X14	Y14	Z14	X15	Y15	Z15	X16	Y16	Z16	X17	Y17	Z17	X18	Y18	Z18	X19	Y19	Z19	X20	Y20	Z20	X21	Y21	Z21	X22	Y22	Z22	X23	Y23	Z23	X24	Y24	Z24	X25	Y25	Z25	X26	Y26	Z26	X27	Y27	Z27	X28	Y28	Z28	X29	Y29	Z29	X30	Y30	Z30	X31	Y31	Z31	X32	Y32	Z32	X33	Y33	Z33	X34	Y34	Z34	X35	Y35	Z35	X36	Y36	Z36	X37	Y37	Z37	X38	Y38	Z38	X39	Y39	Z39	X40	Y40	Z40	X41	Y41	Z41	X42	Y42	Z42	X43	Y43	Z43	X44	Y44	Z44	X45	Y45	Z45	

199	1.980	-924.02740	-397.65024	1609.71252	-1056.11572	-383.63773	1611.25146	-914.35071	-268.92801	1570.36633	-1044.89111	-259.64743	1571.29126	-965.75275	-227.03838	1409.27979	-971.88745	-195.96902	1094.34619	-975.55280	-346.58096	1330.82007	-973.31201	-390.70026	1167.10144	-1058.94446	-166.12685	1233.10291	-818.12262	-314.60461	1366.58167	-741.51501	-349.76685	1178.38440	-728.78162	-391.61041	1063.86121	-739.48969	-464.98044	957.81970	-780.05975	-525.58124	859.71796	-726.62012	-510.31934	853.72113	-742.00232	-562.02484	789.75330	-1132.73596	-290.98148	1355.19397	-1207.59229	-284.21240	1133.56506	-1223.81409	-300.58029	1022.26611	-1228.37207	-321.50311	887.06488	-1196.40259	-357.23291	792.68103	-1238.52686	-323.67798	787.50848	-1233.26404	-350.76529	718.29095	-856.90302	-361.63345	933.26740	-1096.13379	-358.48227	931.79364	-907.91235	-199.99419	958.96295	-1056.63354	-198.80922	958.63031	-828.53845	-280.15833	634.24408	-870.12952	-260.14853	458.30902	-871.59454	-185.06764	275.76465	-917.47998	-143.47668	68.90719	-955.20929	-101.32038	35.46625	-936.34338	-294.16949	29.48483	-1145.51025	-365.74197	640.01782	-1110.65320	-445.10556	477.55621	-1116.95190	-429.53198	289.70358	-1076.33875	-436.55338	72.69387	-1021.14294	-396.54962	38.73600	-1067.15088	-575.07288	40.01747																		 
200	1.990	-924.68793	-404.55002	1609.08423	-1056.82092	-390.51114	1610.56128	-915.06805	-275.90839	1569.66333	-1045.48694	-266.58246	1570.37927	-966.25983	-234.14912	1408.52673	-972.26404	-202.73668	1093.68713	-976.00238	-353.67615	1330.00952	-973.59760	-397.49405	1166.21851	-1059.28223	-173.13686	1232.32190	-818.64899	-321.67746	1365.91577	-742.05933	-356.99255	1177.89001	-729.24152	-399.14862	1063.33862	-740.48657	-473.15186	957.99829	-781.54346	-534.60028	860.64154	-728.14642	-519.44641	854.32208	-743.77350	-571.89026	791.06598	-1133.13831	-297.98059	1354.44910	-1207.74036	-291.02365	1132.56506	-1223.94934	-307.17227	1021.26575	-1228.42297	-328.21283	886.07367	-1196.53516	-364.36804	791.76807	-1238.32825	-330.42453	786.52527	-1233.06970	-357.66977	717.28436	-857.08264	-368.12619	932.40540	-1096.31750	-365.28156	930.93835	-908.17767	-206.71925	958.15344	-1056.90320	-205.62000	957.84106	-828.66931	-285.09631	633.67987	-870.11359	-263.93533	457.82721	-871.58868	-187.22984	275.85901	-917.37836	-143.65970	69.42488	-955.36523	-101.06790	36.28886	-936.30200	-294.21399	29.44287	-1145.84583	-371.57001	638.96362	-1110.57874	-451.66678	476.89017	-1116.71558	-441.60931	289.21725	-1076.04602	-456.04822	72.39182	-1020.67090	-416.88211	38.48480	-1067.06946	-595.38965	40.88124																		 
201	2.000	-925.38763	-411.51660	1608.42041	-1057.46484	-397.41684	1609.81592	-915.68842	-282.65948	1568.89136	-1045.99524	-273.54935	1569.46460	-966.80560	-241.38524	1407.79504	-972.60803	-209.57751	1093.05493	-976.48120	-360.79187	1329.21008	-973.93909	-404.42365	1165.31104	-1059.73987	-180.17815	1231.65125	-819.21600	-328.84418	1365.24817	-742.53479	-364.12488	1177.28735	-729.84717	-406.53595	1062.81946	-741.48651	-481.12265	958.08380	-783.07880	-543.19800	861.34869	-729.68365	-528.11475	854.63037	-745.59418	-581.19855	792.07129	-1133.71741	-305.02298	1353.53125	-1207.96204	-297.95026	1131.57739	-1224.13123	-313.90579	1020.24750	-1228.44543	-335.00128	885.06860	-1196.59741	-371.55392	791.00604	-1238.12292	-337.31894	785.46460	-1232.80518	-364.61462	716.26392	-857.39880	-374.67599	931.57971	-1096.45984	-372.24570	930.10974	-908.56146	-213.30106	957.52655	-1057.18933	-212.42032	957.08026	-828.74646	-290.11874	633.22424	-870.07129	-267.86984	457.37308	-871.61414	-189.52991	275.98544	-917.25635	-144.11682	69.91589	-955.05182	-101.62033	36.69550	-936.29425	-294.27930	29.39597	-1146.59717	-377.68097	638.04175	-1110.52307	-458.19220	476.21524	-1116.56201	-452.92172	288.80276	-1075.99658	-474.13797	72.36231	-1020.16010	-436.24951	38.17604	-1067.03552	-614.56714	42.43520																		 
202	2.010	-926.12457	-418.58752	1607.78955	-1058.21350	-404.38110	1609.15491	-916.16083	-290.06171	1567.86658	-1046.62817	-280.60284	1568.60059	-967.40320	-248.68066	1407.03137	-972.93011	-216.39519	1092.41016	-977.00323	-367.92068	1328.38354	-974.24823	-411.41248	1164.44263	-1060.29675	-187.37222	1230.97449	-819.80145	-335.98096	1364.63794	-743.09174	-371.06589	1176.61731	-730.54956	-413.70364	1062.25830	-742.57605	-488.83838	958.01093	-784.63080	-551.48364	861.90332	-731.25085	-536.43890	854.79755	-747.42560	-590.02722	792.77563	-1134.25562	-312.45358	1352.58752	-1208.18970	-305.05298	1130.63733	-1224.29675	-320.76114	1019.24811	-1228.46936	-341.95468	884.09491	-1196.56311	-378.75314	790.07355	-1237.88208	-344.33447	784.42505	-1232.40149	-371.66891	715.21936	-857.55402	-381.45361	930.70074	-1096.64624	-379.30032	929.34290	-908.81104	-220.14378	956.55939	-1057.50513	-219.29950	956.36499	-828.85864	-295.33044	632.69928	-870.03455	-271.96320	457.01566	-871.56171	-191.80510	276.15143	-917.12982	-144.51451	70.49400	-954.89819	-101.31290	38.12644	-936.23608	-294.38409	29.36547	-1147.48254	-384.07748	637.16882	-1110.48901	-464.65948	475.42545	-1116.43469	-463.39502	288.30719	-1076.16736	-491.01245	72.33629	-1019.71820	-454.46811	37.89579	-1066.92419	-632.66364	44.59227																		 
203	2.020	-926.89368	-425.61295	1607.21277	-1058.95361	-411.37784	1608.51453	-916.86127	-297.21353	1567.07690	-1047.35083	-287.68393	1567.73804	-968.07953	-255.99750	1406.37207	-973.40125	-223.35445	1091.78015	-977.54462	-375.19604	1327.62720	-974.54449	-418.46475	1163.58618	-1060.93408	-194.64330	1230.32214	-820.41345	-343.15747	1364.02405	-743.68658	-378.01340	1175.97827	-731.29742	-420.71375	1061.62891	-743.75055	-496.26312	957.73163	-786.19080	-559.37494	862.17084	-732.87518	-544.32910	854.73340	-749.30536	-598.32275	793.18909	-1134.72949	-320.06482	1351.82373	-1208.49304	-312.27225	1129.66113	-1224.50977	-327.82684	1018.27429	-1228.46057	-349.06079	883.08429	-1196.48291	-386.06015	789.16962	-1237.60486	-351.44321	783.38556	-1231.94019	-378.82001	714.18817	-857.79834	-388.26154	929.90887	-1096.87720	-386.52197	928.65533	-909.30890	-226.85783	955.87561	-1057.96887	-226.29546	955.61633	-828.93066	-300.74118	632.10352	-870.03284	-275.92126	456.64301	-871.52557	-194.13940	276.43973	-916.91919	-144.96785	71.10612	-954.60681	-101.59366	39.06135	-936.19128	-294.45956	29.32424	-1148.00012	-390.64264	636.35474	-1110.49207	-471.04614	474.51892	-1116.34094	-473.21854	287.77579	-1075.98608	-506.83936	72.52921	-1019.51111	-471.44427	37.62626	-1066.57300	-649.78229	47.36658	-970.10162	-339.46381	1673.07312															 
204	2.030	-927.64441	-432.69913	1606.71191	-1059.69531	-418.44632	1607.89429	-917.63770	-304.35574	1566.26294	-1048.07190	-294.81473	1566.84619	-968.99414	-263.32779	1405.81213	-973.93518	-230.30824	1091.17847	-978.11322	-382.55661	1326.88135	-974.85468	-425.56680	1162.75049	-1061.64917	-202.01886	1229.67712	-821.06616	-350.35040	1363.45276	-744.38995	-384.91513	1175.34094	-732.22150	-427.52628	1060.94275	-744.98499	-503.42123	957.38751	-787.80212	-566.99536	862.26056	-734.55420	-551.83105	854.45581	-751.22626	-606.09033	793.29907	-1135.36548	-327.66486	1350.76013	-1208.84619	-319.66177	1128.70776	-1224.72095	-335.01999	1017.27509	-1228.39832	-356.27466	882.08722	-1196.33435	-393.49551	788.30487	-1237.30798	-358.78116	782.32672	-1231.45264	-386.10773	713.14282	-857.92242	-394.82828	928.99719	-1097.17896	-393.86401	927.94519	-909.80743	-233.86600	954.83051	-1058.45300	-233.39742	954.89734	-829.32129	-305.95258	631.85962	-870.08081	-279.93344	456.47165	-871.50983	-196.50035	276.85098	-916.55011	-145.11406	72.02490	-954.79773	-101.61399	40.63578	-936.16144	-294.57153	29.25486	-1148.29919	-397.51971	635.62347	-1110.61804	-477.30093	473.53586	-1116.22876	-482.55606	287.16031	-1076.07617	-521.64203	72.68683	-1019.52814	-487.25034	37.33514	-1066.39001	-665.45422	50.04804																		 
205	2.040	-928.49872	-439.81183	1606.22363	-1060.55579	-425.59882	1607.31506	-918.43610	-311.66852	1565.51868	-1048.87976	-302.08261	1565.96191	-969.86761	-270.71863	1405.23022	-974.45313	-237.45615	1090.61511	-978.70117	-389.93173	1326.18188	-975.17755	-432.73422	1161.99731	-1062.45032	-209.43842	1229.09656	-821.73108	-357.59061	1362.90491	-745.21332	-391.62277	1174.60474	-733.21246	-434.17358	1060.17456	-746.21747	-510.26413	956.83179	-789.43024	-574.16492	862.10699	-736.25037	-558.97571	853.97961	-753.12329	-613.37561	793.07721	-1136.05859	-335.36087	1349.90479	-1209.26123	-327.18930	1127.80444	-1224.91846	-342.37531	1016.28674	-1228.39551	-363.63040	881.10474	-1196.11755	-400.89139	787.49207	-1237.01929	-366.17337	781.21326	-1230.93372	-393.52557	712.12152	-858.08875	-401.36505	928.15942	-1097.47644	-401.32480	927.33014	-910.44537	-240.78893	954.17804	-1059.04407	-240.66788	954.16687	-829.64502	-311.42224	631.53339	-869.98981	-284.00751	456.19928	-871.38635	-198.79199	277.41754	-916.26306	-145.55385	72.96420	-954.27423	-102.25905	41.65170	-936.05237	-294.70804	29.23068	-1148.56116	-404.51495	634.94019	-1110.58618	-483.31299	472.47040	-1116.20593	-491.56796	286.57568	-1076.09766	-535.16724	72.89609	-1019.57800	-501.66785	37.04021	-1066.10461	-679.84967	52.58917																		 
206	2.050	-929.35870	-447.04312	1605.79810	-1061.42419	-432.76407	1606.82886	-919.41339	-318.86658	1564.87415	-1049.67615	-309.37109	1565.14197	-970.87018	-278.06305	1404.72559	-975.21173	-244.74142	1090.09399	-979.29681	-397.36618	1325.56055	-975.52759	-440.09262	1161.32910	-1063.24084	-216.99025	1228.51135	-822.39087	-364.89508	1362.40662	-746.10858	-398.40573	1173.89612	-734.21295	-440.89832	1059.39819	-747.56952	-516.87952	956.12463	-791.07910	-581.08838	861.72113	-737.98303	-565.67584	853.28436	-755.10016	-620.22583	792.56372	-1136.78735	-343.08719	1349.14783	-1209.67651	-334.86429	1126.94189	-1225.22839	-349.87686	1015.37653	-1228.33191	-371.17038	880.16296	-1195.82458	-408.46280	786.57605	-1236.76843	-373.67609	780.29517	-1230.27771	-401.02731	711.12396	-858.37671	-408.44839	927.45190	-1097.87109	-408.90930	926.77838	-911.26672	-247.98094	953.46326	-1059.81909	-248.14079	953.50720	-829.96289	-316.97745	631.26086	-870.03491	-288.08939	456.12448	-871.34259	-201.23228	278.01514	-915.94287	-146.11664	73.94852	-953.91083	-102.47365	43.03887	-936.02667	-294.78986	29.11824	-1148.42725	-411.52722	634.23401	-1110.49524	-489.29785	471.36322	-1116.23792	-500.17761	286.05008	-1076.45483	-547.63477	73.01568	-1019.58740	-514.79327	36.76801	-1065.91614	-692.84094	54.82673																		 
